<?xml version="1.0" encoding="utf-8"?>
<!-- Generator: Adobe Illustrator 16.0.0, SVG Export Plug-In . SVG Version: 6.00 Build 0)  -->
<!DOCTYPE svg PUBLIC "-//W3C//DTD SVG 1.1//EN" "http://www.w3.org/Graphics/SVG/1.1/DTD/svg11.dtd">
<svg version="1.1" id="Layer_1" xmlns="http://www.w3.org/2000/svg" xmlns:xlink="http://www.w3.org/1999/xlink" x="0px" y="0px"
	 width="612px" height="792px" viewBox="0 0 612 792" enable-background="new 0 0 612 792" xml:space="preserve">
<g>
	<path fill-rule="evenodd" clip-rule="evenodd" d="M521.024,450.426c-25.782,123.829-96.736,214.292-214.385,260.016l-3.135,1.22
		l-3.125-1.237C188.264,666.013,115.562,582.28,91.291,462.649C72.48,346.877,77.141,242.626,76.63,125.603l12.083,5.27
		c42.784,18.661,94.26,31.776,139.282,13.033c31.727-13.21,53.991-39.589,70.06-69.485l7.046-13.108l7.873,12.611
		c15.005,24.031,33.918,46.309,58.572,60.545c46.689,26.956,100.35,16.654,147.747-2.667l11.888-4.844
		C531.181,225.987,540.838,355.19,521.024,450.426z"/>
	<path fill-rule="evenodd" clip-rule="evenodd" fill="#ED1C24" d="M87.819,347.909l7.699-174.548l118.202,3.04l94.816-58.786
		l90.501,53.721l124.789,25.08l-3.88,171.051c-0.688,30.478-6.644,64.69-13.7,92.916l-204.38,16.047L87.819,347.909z"/>
	<path fill-rule="evenodd" clip-rule="evenodd" fill="#FFFFFF" d="M90.741,321.719l34.002,10.356l274.298,93.93l114.9,19.927
		c-22.52,118.686-89.149,204.341-206.567,251.96C175.862,644.762,92.177,537.419,90.741,321.719z"/>
	<path fill-rule="evenodd" clip-rule="evenodd" d="M524.404,137.241c-108.836,44.366-172.832,9.213-216.871-61.325
		c-46.476,86.458-121.138,103.591-220.374,60.311v212.349l150.254,51.693l23.381-40.405L129.23,315.13c0-39.908,0-79.816,0-119.72
		c68.843,19.396,129.161,5.213,179.306-49.047c49.917,41.409,105.181,64.864,171.793,50.171v161.671l44.075,14.696V137.241z"/>
	<path fill-rule="evenodd" clip-rule="evenodd" d="M514.428,445.932l-145.555-49.32l32.08,54.175l62.296,21.921
		c-31.619,84.511-77.553,143.877-156.883,179.53c-96.515-53.268-149.743-117.553-161.748-182.985l-42.972-11.047
		c23.221,114.472,92.199,197.177,203.766,241.373C420.756,654.752,491.997,566.932,514.428,445.932z"/>
	<path fill-rule="evenodd" clip-rule="evenodd" d="M376.912,484.772H235.126c-10.228,0-17.647-5.923-17.647-14.086
		c0-7.568,3.188-12.509,3.699-13.253l57.832-100.449v-65.108c-5.271-5.43-7.157-9.012-6.114-11.551
		c0.369-0.896,1.44-2.404,4.493-2.404c0.241,0,0.454,0.007,0.635,0.021c0.749-0.16,1.649-0.241,2.681-0.241
		c1.67,0,3.252,0.209,3.731,0.284h43.171c0.481-0.074,2.06-0.284,3.733-0.284c1.028,0,1.93,0.082,2.683,0.241
		c0.177-0.014,0.393-0.021,0.631-0.021c3.057,0,4.128,1.507,4.496,2.404c1.043,2.54-0.851,6.122-6.117,11.551v65.108l57.831,100.449
		c0.511,0.744,3.703,5.685,3.703,13.253C394.566,478.85,387.144,484.772,376.912,484.772z"/>
	<g>
		<path fill="#FFFFFF" d="M276.084,439.716h-3.643v-23.389c-0.879,0.839-2.028,1.685-3.454,2.528
			c-1.422,0.845-2.702,1.476-3.837,1.894v-3.547c2.039-0.964,3.819-2.135,5.348-3.507c1.525-1.373,2.603-2.706,3.237-3.997h2.348
			V439.716z"/>
		<path fill="#FFFFFF" d="M299.015,424.973c0-3.536,0.361-6.38,1.085-8.535c0.72-2.153,1.794-3.816,3.22-4.987
			c1.422-1.167,3.212-1.752,5.373-1.752c1.597,0,2.993,0.323,4.191,0.968c1.202,0.646,2.195,1.578,2.979,2.795
			c0.78,1.217,1.397,2.698,1.842,4.443c0.446,1.749,0.67,4.104,0.67,7.068c0,3.508-0.358,6.337-1.074,8.493
			c-0.717,2.153-1.785,3.82-3.21,4.994c-1.426,1.178-3.225,1.766-5.397,1.766c-2.862,0-5.107-1.035-6.742-3.1
			C299.994,434.636,299.015,430.587,299.015,424.973z M302.763,424.973c0,4.908,0.568,8.175,1.71,9.799
			c1.142,1.624,2.546,2.437,4.22,2.437s3.081-0.816,4.223-2.447c1.144-1.631,1.71-4.894,1.71-9.788c0-4.923-0.566-8.192-1.71-9.81
			c-1.142-1.617-2.56-2.426-4.262-2.426c-1.674,0-3.011,0.713-4.008,2.14C303.392,416.699,302.763,420.064,302.763,424.973z"/>
		<path fill="#FFFFFF" d="M349.399,439.716h-3.643v-23.389c-0.88,0.839-2.028,1.685-3.454,2.528
			c-1.422,0.845-2.702,1.476-3.838,1.894v-3.547c2.04-0.964,3.819-2.135,5.348-3.507c1.525-1.373,2.604-2.706,3.239-3.997h2.348
			V439.716z"/>
	</g>
	<g>
		<path fill="#FFFFFF" d="M235.8,459.473c0-3.536,0.362-6.381,1.085-8.537c0.72-2.152,1.794-3.815,3.22-4.985
			c1.422-1.167,3.213-1.752,5.373-1.752c1.596,0,2.993,0.322,4.192,0.969c1.202,0.645,2.195,1.577,2.979,2.794
			c0.78,1.216,1.397,2.699,1.84,4.443c0.447,1.748,0.67,4.103,0.67,7.068c0,3.507-0.358,6.337-1.074,8.494
			c-0.716,2.151-1.784,3.819-3.21,4.992c-1.426,1.178-3.224,1.767-5.397,1.767c-2.862,0-5.107-1.036-6.742-3.1
			C236.779,469.137,235.8,465.086,235.8,459.473z M239.548,459.473c0,4.907,0.568,8.175,1.709,9.799
			c1.142,1.624,2.546,2.436,4.221,2.436c1.674,0,3.082-0.814,4.224-2.446c1.142-1.632,1.709-4.895,1.709-9.788
			c0-4.922-0.568-8.192-1.709-9.81c-1.142-1.617-2.561-2.426-4.263-2.426c-1.674,0-3.011,0.713-4.007,2.138
			C240.177,451.198,239.548,454.564,239.548,459.473z"/>
		<path fill="#FFFFFF" d="M280.056,474.215h-3.642v-23.389c-0.879,0.841-2.028,1.685-3.454,2.528
			c-1.422,0.844-2.702,1.476-3.837,1.894v-3.546c2.039-0.965,3.819-2.135,5.348-3.508c1.525-1.372,2.603-2.705,3.238-3.996h2.348
			V474.215z"/>
		<path fill="#FFFFFF" d="M296.855,459.473c0-3.536,0.362-6.381,1.085-8.537c0.72-2.152,1.794-3.815,3.22-4.985
			c1.422-1.167,3.213-1.752,5.372-1.752c1.596,0,2.994,0.322,4.193,0.969c1.202,0.645,2.195,1.577,2.979,2.794
			c0.78,1.216,1.397,2.699,1.842,4.443c0.446,1.748,0.67,4.103,0.67,7.068c0,3.507-0.358,6.337-1.075,8.494
			c-0.717,2.151-1.784,3.819-3.21,4.992c-1.425,1.178-3.224,1.767-5.398,1.767c-2.861,0-5.106-1.036-6.741-3.1
			C297.834,469.137,296.855,465.086,296.855,459.473z M300.604,459.473c0,4.907,0.567,8.175,1.709,9.799
			c1.142,1.624,2.546,2.436,4.219,2.436c1.675,0,3.083-0.814,4.224-2.446s1.71-4.895,1.71-9.788c0-4.922-0.568-8.192-1.71-9.81
			s-2.56-2.426-4.262-2.426c-1.674,0-3.011,0.713-4.008,2.138C301.231,451.198,300.604,454.564,300.604,459.473z"/>
		<path fill="#FFFFFF" d="M341.11,474.215h-3.642v-23.389c-0.879,0.841-2.028,1.685-3.454,2.528
			c-1.423,0.844-2.702,1.476-3.837,1.894v-3.546c2.039-0.965,3.819-2.135,5.348-3.508c1.524-1.372,2.604-2.705,3.237-3.996h2.348
			V474.215z"/>
		<path fill="#FFFFFF" d="M357.91,459.473c0-3.536,0.362-6.381,1.085-8.537c0.721-2.152,1.795-3.815,3.221-4.985
			c1.422-1.167,3.213-1.752,5.373-1.752c1.596,0,2.992,0.322,4.191,0.969c1.202,0.645,2.195,1.577,2.979,2.794
			c0.78,1.216,1.397,2.699,1.842,4.443c0.446,1.748,0.67,4.103,0.67,7.068c0,3.507-0.358,6.337-1.075,8.494
			c-0.717,2.151-1.784,3.819-3.21,4.992c-1.425,1.178-3.224,1.767-5.396,1.767c-2.862,0-5.107-1.036-6.742-3.1
			C358.889,469.137,357.91,465.086,357.91,459.473z M361.659,459.473c0,4.907,0.566,8.175,1.71,9.799
			c1.142,1.624,2.546,2.436,4.22,2.436s3.082-0.814,4.224-2.446s1.71-4.895,1.71-9.788c0-4.922-0.568-8.192-1.71-9.81
			s-2.561-2.426-4.263-2.426c-1.674,0-3.011,0.713-4.008,2.138C362.286,451.198,361.659,454.564,361.659,459.473z"/>
	</g>
	<g>
		<rect x="285.053" y="293.788" fill-rule="evenodd" clip-rule="evenodd" fill="#FFFFFF" width="1.748" height="59.047"/>
		<rect x="285.826" y="300.831" fill-rule="evenodd" clip-rule="evenodd" fill="#FFFFFF" width="9.898" height="1.769"/>
		<rect x="285.826" y="313.349" fill-rule="evenodd" clip-rule="evenodd" fill="#FFFFFF" width="9.898" height="1.773"/>
		<rect x="285.826" y="325.868" fill-rule="evenodd" clip-rule="evenodd" fill="#FFFFFF" width="9.898" height="1.77"/>
		<rect x="285.826" y="338.387" fill-rule="evenodd" clip-rule="evenodd" fill="#FFFFFF" width="9.898" height="1.766"/>
	</g>
	<g>
		<g>
			<g>
				<path fill-rule="evenodd" clip-rule="evenodd" fill="#FFFFFF" d="M323.095,349.735c0-5.418-4.337-9.81-9.691-9.81
					c-5.355,0-9.7,4.391-9.7,9.81c0,5.419,4.344,9.81,9.7,9.81C318.758,359.545,323.095,355.154,323.095,349.735z"/>
				<path fill-rule="evenodd" clip-rule="evenodd" fill="#FFFFFF" d="M313.403,359.903c-5.543,0-10.051-4.564-10.051-10.168
					c0-5.61,4.508-10.171,10.051-10.171c5.538,0,10.05,4.561,10.05,10.171C323.453,355.339,318.941,359.903,313.403,359.903
					L313.403,359.903z M313.403,340.281L313.403,340.281c-5.153,0-9.342,4.242-9.342,9.455c0,5.21,4.188,9.451,9.342,9.451
					c5.152,0,9.341-4.241,9.341-9.451C322.744,344.522,318.556,340.281,313.403,340.281z"/>
			</g>
			<g>
				<path fill-rule="evenodd" clip-rule="evenodd" fill="#FFFFFF" d="M319.953,349.735c0-3.663-2.937-6.632-6.55-6.632
					L319.953,349.735z"/>
				<path fill-rule="evenodd" clip-rule="evenodd" fill="#FFFFFF" d="M319.953,350.09c-0.199,0-0.355-0.16-0.355-0.355
					c0-3.458-2.78-6.27-6.194-6.27c-0.195,0-0.358-0.159-0.358-0.362c0-0.195,0.163-0.354,0.358-0.354c3.805,0,6.9,3.135,6.9,6.986
					C320.304,349.93,320.148,350.09,319.953,350.09z"/>
			</g>
		</g>
		<g>
			<g>
				<path fill-rule="evenodd" clip-rule="evenodd" fill="#FFFFFF" d="M306.69,364.24c0-3.904-3.132-7.071-6.987-7.071
					c-3.866,0-6.993,3.167-6.993,7.071c0,3.908,3.127,7.072,6.993,7.072C303.558,371.312,306.69,368.148,306.69,364.24z"/>
				<path fill-rule="evenodd" clip-rule="evenodd" fill="#FFFFFF" d="M299.703,371.674c-4.05,0-7.349-3.333-7.349-7.434
					c0-4.093,3.298-7.43,7.349-7.43c4.05,0,7.341,3.337,7.341,7.43C307.044,368.34,303.753,371.674,299.703,371.674L299.703,371.674
					z M299.703,357.531L299.703,357.531c-3.664,0-6.643,3.007-6.643,6.709c0,3.703,2.979,6.717,6.643,6.717
					c3.656,0,6.631-3.015,6.631-6.717C306.334,360.538,303.359,357.531,299.703,357.531z"/>
			</g>
			<g>
				<path fill-rule="evenodd" clip-rule="evenodd" fill="#FFFFFF" d="M304.419,364.24c0-2.638-2.114-4.773-4.716-4.773
					L304.419,364.24z"/>
				<path fill-rule="evenodd" clip-rule="evenodd" fill="#FFFFFF" d="M304.419,364.602c-0.195,0-0.351-0.163-0.351-0.362
					c0-2.437-1.962-4.416-4.366-4.416c-0.195,0-0.358-0.163-0.358-0.358c0-0.199,0.163-0.362,0.358-0.362
					c2.798,0,5.071,2.305,5.071,5.135C304.774,364.439,304.615,364.602,304.419,364.602z"/>
			</g>
		</g>
		<g>
			<g>
				<path fill-rule="evenodd" clip-rule="evenodd" fill="#FFFFFF" d="M317.336,376.213c0-3.688-2.954-6.678-6.597-6.678
					c-3.646,0-6.596,2.99-6.596,6.678c0,3.681,2.951,6.67,6.596,6.67C314.382,382.884,317.336,379.895,317.336,376.213z"/>
				<path fill-rule="evenodd" clip-rule="evenodd" fill="#FFFFFF" d="M310.739,383.242c-3.833,0-6.951-3.153-6.951-7.029
					c0-3.88,3.117-7.036,6.951-7.036c3.834,0,6.952,3.156,6.952,7.036C317.691,380.089,314.573,383.242,310.739,383.242
					L310.739,383.242z M310.739,369.897L310.739,369.897c-3.443,0-6.242,2.83-6.242,6.316c0,3.482,2.798,6.313,6.242,6.313
					c3.444,0,6.246-2.831,6.246-6.313C316.985,372.727,314.184,369.897,310.739,369.897z"/>
			</g>
			<g>
				<path fill-rule="evenodd" clip-rule="evenodd" fill="#FFFFFF" d="M315.193,376.213c0-2.49-1.993-4.511-4.454-4.511
					L315.193,376.213z"/>
				<path fill-rule="evenodd" clip-rule="evenodd" fill="#FFFFFF" d="M315.193,376.568c-0.198,0-0.351-0.16-0.351-0.354
					c0-2.292-1.842-4.153-4.104-4.153c-0.191,0-0.354-0.16-0.354-0.358c0-0.199,0.163-0.354,0.354-0.354
					c2.652,0,4.81,2.181,4.81,4.866C315.549,376.408,315.389,376.568,315.193,376.568z"/>
			</g>
		</g>
		<g>
			<g>
				<ellipse fill-rule="evenodd" clip-rule="evenodd" fill="#FFFFFF" cx="297.382" cy="384.739" rx="4.134" ry="4.181"/>
				<path fill-rule="evenodd" clip-rule="evenodd" fill="#FFFFFF" d="M297.38,389.278c-2.472,0-4.483-2.036-4.483-4.539
					c0-2.5,2.011-4.54,4.483-4.54c2.472,0,4.486,2.04,4.486,4.54C301.866,387.242,299.852,389.278,297.38,389.278L297.38,389.278z
					 M297.38,380.916L297.38,380.916c-2.082,0-3.777,1.716-3.777,3.823c0,2.106,1.695,3.823,3.777,3.823
					c2.085,0,3.777-1.717,3.777-3.823C301.157,382.632,299.465,380.916,297.38,380.916z"/>
			</g>
			<g>
				<path fill-rule="evenodd" clip-rule="evenodd" fill="#FFFFFF" d="M300.171,384.739c0-1.561-1.248-2.823-2.791-2.823
					L300.171,384.739z"/>
				<path fill-rule="evenodd" clip-rule="evenodd" fill="#FFFFFF" d="M300.171,385.1c-0.195,0-0.351-0.163-0.351-0.361
					c0-1.358-1.092-2.461-2.439-2.461c-0.195,0-0.352-0.163-0.352-0.361s0.156-0.358,0.352-0.358c1.737,0,3.145,1.429,3.145,3.181
					C300.525,384.938,300.366,385.1,300.171,385.1z"/>
			</g>
		</g>
	</g>
</g>
</svg>
