<?xml version="1.0" encoding="UTF-8"?>
<svg id="Layer_1" data-name="Layer 1" xmlns="http://www.w3.org/2000/svg" viewBox="0 0 517.77 197.25">
  <defs>
    <style>
      .cls-1 {
        fill: #e33f3d;
      }

      .cls-1, .cls-2 {
        stroke-width: 0px;
      }

      .cls-2 {
        fill: #fff;
      }
    </style>
  </defs>
  <path class="cls-2" d="M49.31,49.31v24.66h24.66v73.97h24.66v-73.97h24.66v-24.66H49.31Z"/>
  <path class="cls-1" d="M369.84,73.97v-24.66h-24.66l-24.66,24.66h0s0,0,0,0h0v49.31h-24.66v24.66h73.97v-24.66h-24.66v-49.31h24.66Z"/>
  <path class="cls-2" d="M147.93,73.97h49.31v-24.66h-49.31l-24.66,24.66h0s0,0,0,0h0v73.97h73.97v-24.66h-49.31v-49.31Z"/>
  <path class="cls-2" d="M221.9,49.31v49.31h-24.66v24.66h24.66v24.66h24.66v-24.66h49.31V49.31h-73.97ZM271.21,98.62h-24.66v-24.66h24.66v24.66Z"/>
  <path class="cls-1" d="M394.49,49.31s0,49.31,0,49.31h-24.66v24.66h24.66s0,24.65,0,24.65h24.65v-73.97h0s18.86,0,18.86,0v2.34h11.47v11.32c-3.41,3.41-7.43,7.42-11,11h-4.07l2.34-2.33h-12.04v26.99h43.75V49.31h-73.97Z"/>
</svg>