<svg width="284" height="138" viewBox="0 0 284 138" fill="none" xmlns="http://www.w3.org/2000/svg">
<g filter="url(#filter0_d_1_27)">
<path d="M19.5686 114.506V109.235V103.965H24.8392H30.1098V109.235V114.506H24.8392H19.5686ZM19.5686 106.976V101.706V96.4353H24.8392H30.1098V101.706V106.976H24.8392H19.5686ZM19.5686 99.4471V94.1765V88.9059H24.8392H30.1098V94.1765V99.4471H24.8392H19.5686ZM19.5686 91.9176V86.6471V81.3765H24.8392H30.1098V86.6471V91.9176H24.8392H19.5686ZM19.5686 84.3882V79.1176V73.8471H24.8392H30.1098V79.1176V84.3882H24.8392H19.5686ZM19.5686 76.8588V71.5882V66.3176H24.8392H30.1098V71.5882V76.8588H24.8392H19.5686ZM19.5686 69.3294V64.0588V58.7882H24.8392H30.1098V64.0588V69.3294H24.8392H19.5686ZM19.5686 61.8V56.5294V51.2588H24.8392H30.1098V56.5294V61.8H24.8392H19.5686ZM19.5686 54.2706V49V43.7294H24.8392H30.1098V49V54.2706H24.8392H19.5686ZM19.5686 46.7412V41.4706V36.2H24.8392H30.1098V41.4706V46.7412H24.8392H19.5686ZM4.5098 39.2118V33.9412V28.6706H9.78039H15.051V33.9412V39.2118H9.78039H4.5098ZM12.0392 39.2118V33.9412V28.6706H17.3098H22.5804V33.9412V39.2118H17.3098H12.0392ZM19.5686 39.2118V33.9412V28.6706H24.8392H30.1098V33.9412V39.2118H24.8392H19.5686ZM27.098 39.2118V33.9412V28.6706H32.3686H37.6392V33.9412V39.2118H32.3686H27.098ZM34.6275 39.2118V33.9412V28.6706H39.898H45.1686V33.9412V39.2118H39.898H34.6275ZM57.1936 114.506V109.235V103.965H62.4642H67.7348V109.235V114.506H62.4642H57.1936ZM64.723 114.506V109.235V103.965H69.9936H75.2642V109.235V114.506H69.9936H64.723ZM72.2525 114.506V109.235V103.965H77.523H82.7936V109.235V114.506H77.523H72.2525ZM49.6642 106.976V101.706V96.4353H54.9348H60.2054V101.706V106.976H54.9348H49.6642ZM79.7819 106.976V101.706V96.4353H85.0525H90.323V101.706V106.976H85.0525H79.7819ZM49.6642 99.4471V94.1765V88.9059H54.9348H60.2054V94.1765V99.4471H54.9348H49.6642ZM79.7819 99.4471V94.1765V88.9059H85.0525H90.323V94.1765V99.4471H85.0525H79.7819ZM49.6642 91.9176V86.6471V81.3765H54.9348H60.2054V86.6471V91.9176H54.9348H49.6642ZM49.6642 84.3882V79.1176V73.8471H54.9348H60.2054V79.1176V84.3882H54.9348H49.6642ZM49.6642 76.8588V71.5882V66.3176H54.9348H60.2054V71.5882V76.8588H54.9348H49.6642ZM49.6642 69.3294V64.0588V58.7882H54.9348H60.2054V64.0588V69.3294H54.9348H49.6642ZM49.6642 61.8V56.5294V51.2588H54.9348H60.2054V56.5294V61.8H54.9348H49.6642ZM49.6642 54.2706V49V43.7294H54.9348H60.2054V49V54.2706H54.9348H49.6642ZM79.7819 54.2706V49V43.7294H85.0525H90.323V49V54.2706H85.0525H79.7819ZM49.6642 46.7412V41.4706V36.2H54.9348H60.2054V41.4706V46.7412H54.9348H49.6642ZM79.7819 46.7412V41.4706V36.2H85.0525H90.323V41.4706V46.7412H85.0525H79.7819ZM57.1936 39.2118V33.9412V28.6706H62.4642H67.7348V33.9412V39.2118H62.4642H57.1936ZM64.723 39.2118V33.9412V28.6706H69.9936H75.2642V33.9412V39.2118H69.9936H64.723ZM72.2525 39.2118V33.9412V28.6706H77.523H82.7936V33.9412V39.2118H77.523H72.2525ZM102.414 114.506V109.235V103.965H107.685H112.955V109.235V114.506H107.685H102.414ZM102.414 106.976V101.706V96.4353H107.685H112.955V101.706V106.976H107.685H102.414ZM102.414 99.4471V94.1765V88.9059H107.685H112.955V94.1765V99.4471H107.685H102.414ZM102.414 91.9176V86.6471V81.3765H107.685H112.955V86.6471V91.9176H107.685H102.414ZM102.414 84.3882V79.1176V73.8471H107.685H112.955V79.1176V84.3882H107.685H102.414ZM109.944 84.3882V79.1176V73.8471H115.214H120.485V79.1176V84.3882H115.214H109.944ZM117.473 84.3882V79.1176V73.8471H122.744H128.014V79.1176V84.3882H122.744H117.473ZM125.002 84.3882V79.1176V73.8471H130.273H135.544V79.1176V84.3882H130.273H125.002ZM102.414 76.8588V71.5882V66.3176H107.685H112.955V71.5882V76.8588H107.685H102.414ZM132.532 76.8588V71.5882V66.3176H137.802H143.073V71.5882V76.8588H137.802H132.532ZM102.414 69.3294V64.0588V58.7882H107.685H112.955V64.0588V69.3294H107.685H102.414ZM132.532 69.3294V64.0588V58.7882H137.802H143.073V64.0588V69.3294H137.802H132.532ZM102.414 61.8V56.5294V51.2588H107.685H112.955V56.5294V61.8H107.685H102.414ZM132.532 61.8V56.5294V51.2588H137.802H143.073V56.5294V61.8H137.802H132.532ZM102.414 54.2706V49V43.7294H107.685H112.955V49V54.2706H107.685H102.414ZM132.532 54.2706V49V43.7294H137.802H143.073V49V54.2706H137.802H132.532ZM102.414 46.7412V41.4706V36.2H107.685H112.955V41.4706V46.7412H107.685H102.414ZM132.532 46.7412V41.4706V36.2H137.802H143.073V41.4706V46.7412H137.802H132.532ZM102.414 39.2118V33.9412V28.6706H107.685H112.955V33.9412V39.2118H107.685H102.414ZM109.944 39.2118V33.9412V28.6706H115.214H120.485V33.9412V39.2118H115.214H109.944ZM117.473 39.2118V33.9412V28.6706H122.744H128.014V33.9412V39.2118H122.744H117.473ZM125.002 39.2118V33.9412V28.6706H130.273H135.544V33.9412V39.2118H130.273H125.002Z" fill="#EDF2F6"/>
</g>
<g filter="url(#filter1_d_1_27)">
<path d="M191.134 51.2555C191.134 51.4242 191.049 51.5814 190.907 51.6738L163.117 69.8721C162.816 70.0695 162.816 70.5113 163.117 70.7087L190.907 88.907C191.049 88.9994 191.134 89.1567 191.134 89.3253V99.1501C191.134 99.5463 190.695 99.7852 190.362 99.5699L151.636 74.5175C151.493 74.4253 151.407 74.2673 151.407 74.0976V66.4832C151.407 66.3136 151.493 66.1555 151.636 66.0634L190.362 41.0109C190.695 40.7957 191.134 41.0345 191.134 41.4307V51.2555Z" fill="#EDF2F6"/>
<path d="M211.148 28C211.05 28 210.953 28.0292 210.871 28.0839L195.915 38.0498C195.776 38.1425 195.692 38.2986 195.692 38.4658V48.289C195.692 48.6861 196.133 48.9247 196.466 48.7077L210.549 39.5185C210.882 39.3015 211.322 39.5402 211.322 39.9373V112.846C211.322 113.015 211.408 113.173 211.551 113.265L221.145 119.473C221.477 119.688 221.915 119.451 221.917 119.055L222.237 28.5018C222.238 28.2249 222.014 28 221.737 28L211.148 28Z" fill="#EDF2F6"/>
</g>
<g filter="url(#filter2_d_1_27)">
<path d="M233.777 110.861V53.268V28.5C233.777 28.2239 234.001 28 234.277 28H242.888C242.988 28 243.087 28.0304 243.17 28.0872L279.396 52.8553C279.687 53.0538 279.687 53.4822 279.396 53.6808L243.26 78.3871C243.124 78.4803 243.042 78.6348 243.042 78.7999V110.646C243.042 110.783 242.986 110.914 242.887 111.009L234.622 118.872C234.304 119.175 233.777 118.95 233.777 118.51V110.861Z" fill="#FF5656"/>
</g>
<defs>
<filter id="filter0_d_1_27" x="0.509804" y="28.6706" width="146.563" height="93.8353" filterUnits="userSpaceOnUse" color-interpolation-filters="sRGB">
<feFlood flood-opacity="0" result="BackgroundImageFix"/>
<feColorMatrix in="SourceAlpha" type="matrix" values="0 0 0 0 0 0 0 0 0 0 0 0 0 0 0 0 0 0 127 0" result="hardAlpha"/>
<feOffset dy="4"/>
<feGaussianBlur stdDeviation="2"/>
<feComposite in2="hardAlpha" operator="out"/>
<feColorMatrix type="matrix" values="0 0 0 0 0 0 0 0 0 0 0 0 0 0 0 0 0 0 0.25 0"/>
<feBlend mode="normal" in2="BackgroundImageFix" result="effect1_dropShadow_1_27"/>
<feBlend mode="normal" in="SourceGraphic" in2="effect1_dropShadow_1_27" result="shape"/>
</filter>
<filter id="filter1_d_1_27" x="147.407" y="28" width="78.8301" height="99.5544" filterUnits="userSpaceOnUse" color-interpolation-filters="sRGB">
<feFlood flood-opacity="0" result="BackgroundImageFix"/>
<feColorMatrix in="SourceAlpha" type="matrix" values="0 0 0 0 0 0 0 0 0 0 0 0 0 0 0 0 0 0 127 0" result="hardAlpha"/>
<feOffset dy="4"/>
<feGaussianBlur stdDeviation="2"/>
<feComposite in2="hardAlpha" operator="out"/>
<feColorMatrix type="matrix" values="0 0 0 0 0 0 0 0 0 0 0 0 0 0 0 0 0 0 0.25 0"/>
<feBlend mode="normal" in2="BackgroundImageFix" result="effect1_dropShadow_1_27"/>
<feBlend mode="normal" in="SourceGraphic" in2="effect1_dropShadow_1_27" result="shape"/>
</filter>
<filter id="filter2_d_1_27" x="229.777" y="28" width="53.8367" height="99.011" filterUnits="userSpaceOnUse" color-interpolation-filters="sRGB">
<feFlood flood-opacity="0" result="BackgroundImageFix"/>
<feColorMatrix in="SourceAlpha" type="matrix" values="0 0 0 0 0 0 0 0 0 0 0 0 0 0 0 0 0 0 127 0" result="hardAlpha"/>
<feOffset dy="4"/>
<feGaussianBlur stdDeviation="2"/>
<feComposite in2="hardAlpha" operator="out"/>
<feColorMatrix type="matrix" values="0 0 0 0 0 0 0 0 0 0 0 0 0 0 0 0 0 0 0.25 0"/>
<feBlend mode="normal" in2="BackgroundImageFix" result="effect1_dropShadow_1_27"/>
<feBlend mode="normal" in="SourceGraphic" in2="effect1_dropShadow_1_27" result="shape"/>
</filter>
</defs>
</svg>
